<mxfile host="app.diagrams.net" agent="Mozilla/5.0 (Windows NT 10.0; Win64; x64) AppleWebKit/537.36 (KHTML, like Gecko) Chrome/128.0.0.0 Safari/537.36 Edg/128.0.0.0" version="24.7.8">
  <diagram id="C5RBs43oDa-KdzZeNtuy" name="Page-1">
    <mxGraphModel dx="1434" dy="794" grid="1" gridSize="10" guides="1" tooltips="1" connect="1" arrows="1" fold="1" page="1" pageScale="1" pageWidth="827" pageHeight="1169" math="0" shadow="0">
      <root>
        <mxCell id="WIyWlLk6GJQsqaUBKTNV-0" />
        <mxCell id="WIyWlLk6GJQsqaUBKTNV-1" parent="WIyWlLk6GJQsqaUBKTNV-0" />
        <mxCell id="8Ak1ZYgC2NYPiWGYwasn-8" value="JSON" style="swimlane;whiteSpace=wrap;html=1;" parent="WIyWlLk6GJQsqaUBKTNV-1" vertex="1">
          <mxGeometry x="10" y="70" width="110" height="110" as="geometry" />
        </mxCell>
        <mxCell id="8Ak1ZYgC2NYPiWGYwasn-9" value="[&lt;div&gt;&amp;nbsp; &amp;nbsp; {&lt;/div&gt;&lt;div&gt;&amp;nbsp; &amp;nbsp; &amp;nbsp; &amp;nbsp; pray_times&amp;nbsp;&lt;/div&gt;&lt;div&gt;&amp;nbsp; &amp;nbsp; &amp;nbsp;}&lt;/div&gt;&lt;div&gt;]&lt;/div&gt;" style="text;html=1;align=center;verticalAlign=middle;resizable=0;points=[];autosize=1;strokeColor=#82b366;fillColor=#d5e8d4;" parent="8Ak1ZYgC2NYPiWGYwasn-8" vertex="1">
          <mxGeometry y="20" width="110" height="90" as="geometry" />
        </mxCell>
        <mxCell id="8Ak1ZYgC2NYPiWGYwasn-10" value="" style="rounded=1;whiteSpace=wrap;html=1;fillColor=#ffe6cc;strokeColor=#d79b00;" parent="WIyWlLk6GJQsqaUBKTNV-1" vertex="1">
          <mxGeometry x="200" y="70" width="310" height="170" as="geometry" />
        </mxCell>
        <mxCell id="8Ak1ZYgC2NYPiWGYwasn-11" value="Celery" style="rounded=0;whiteSpace=wrap;html=1;" parent="WIyWlLk6GJQsqaUBKTNV-1" vertex="1">
          <mxGeometry x="295" y="70" width="120" height="30" as="geometry" />
        </mxCell>
        <mxCell id="8Ak1ZYgC2NYPiWGYwasn-16" value="" style="edgeStyle=orthogonalEdgeStyle;rounded=0;orthogonalLoop=1;jettySize=auto;html=1;" parent="WIyWlLk6GJQsqaUBKTNV-1" source="8Ak1ZYgC2NYPiWGYwasn-12" target="8Ak1ZYgC2NYPiWGYwasn-9" edge="1">
          <mxGeometry relative="1" as="geometry" />
        </mxCell>
        <mxCell id="8Ak1ZYgC2NYPiWGYwasn-12" value="Every month parse the &quot;pray_times&quot;" style="rounded=0;whiteSpace=wrap;html=1;" parent="WIyWlLk6GJQsqaUBKTNV-1" vertex="1">
          <mxGeometry x="240" y="117.5" width="230" height="35" as="geometry" />
        </mxCell>
        <mxCell id="8Ak1ZYgC2NYPiWGYwasn-15" value="Runs send notification:&lt;br&gt;if local_time == pray_time:&lt;div&gt;...&lt;/div&gt;" style="rounded=0;whiteSpace=wrap;html=1;" parent="WIyWlLk6GJQsqaUBKTNV-1" vertex="1">
          <mxGeometry x="240" y="170" width="230" height="50" as="geometry" />
        </mxCell>
        <mxCell id="8Ak1ZYgC2NYPiWGYwasn-17" value="RabbitMQ for broker" style="rounded=1;whiteSpace=wrap;html=1;fillColor=#fff2cc;strokeColor=#d6b656;" parent="WIyWlLk6GJQsqaUBKTNV-1" vertex="1">
          <mxGeometry x="295" width="120" height="40" as="geometry" />
        </mxCell>
        <mxCell id="8Ak1ZYgC2NYPiWGYwasn-19" value="" style="endArrow=classic;html=1;rounded=0;" parent="WIyWlLk6GJQsqaUBKTNV-1" source="8Ak1ZYgC2NYPiWGYwasn-17" target="8Ak1ZYgC2NYPiWGYwasn-11" edge="1">
          <mxGeometry width="50" height="50" relative="1" as="geometry">
            <mxPoint x="230" y="160" as="sourcePoint" />
            <mxPoint x="280" y="110" as="targetPoint" />
          </mxGeometry>
        </mxCell>
        <mxCell id="8Ak1ZYgC2NYPiWGYwasn-20" value="" style="rounded=1;whiteSpace=wrap;html=1;fillColor=#dae8fc;strokeColor=#6c8ebf;" parent="WIyWlLk6GJQsqaUBKTNV-1" vertex="1">
          <mxGeometry x="50" y="280" width="580" height="310" as="geometry" />
        </mxCell>
        <mxCell id="8Ak1ZYgC2NYPiWGYwasn-22" value="WebSocket" style="shape=tape;whiteSpace=wrap;html=1;fillColor=#f8cecc;strokeColor=#b85450;" parent="WIyWlLk6GJQsqaUBKTNV-1" vertex="1">
          <mxGeometry x="510" y="300" width="80" height="50" as="geometry" />
        </mxCell>
        <mxCell id="8Ak1ZYgC2NYPiWGYwasn-23" value="" style="shape=cube;whiteSpace=wrap;html=1;boundedLbl=1;backgroundOutline=1;darkOpacity=0.05;darkOpacity2=0.1;fillColor=#b0e3e6;strokeColor=#0e8088;" parent="WIyWlLk6GJQsqaUBKTNV-1" vertex="1">
          <mxGeometry x="890" y="162.5" width="460" height="307.5" as="geometry" />
        </mxCell>
        <mxCell id="8Ak1ZYgC2NYPiWGYwasn-24" value="" style="endArrow=classic;html=1;rounded=0;exitX=0.002;exitY=0.529;exitDx=0;exitDy=0;exitPerimeter=0;" parent="WIyWlLk6GJQsqaUBKTNV-1" source="8Ak1ZYgC2NYPiWGYwasn-23" target="8Ak1ZYgC2NYPiWGYwasn-22" edge="1">
          <mxGeometry width="50" height="50" relative="1" as="geometry">
            <mxPoint x="440" y="400" as="sourcePoint" />
            <mxPoint x="490" y="350" as="targetPoint" />
          </mxGeometry>
        </mxCell>
        <mxCell id="8Ak1ZYgC2NYPiWGYwasn-25" value="" style="endArrow=classic;html=1;rounded=0;exitX=0.522;exitY=1;exitDx=0;exitDy=0;exitPerimeter=0;" parent="WIyWlLk6GJQsqaUBKTNV-1" target="8Ak1ZYgC2NYPiWGYwasn-22" edge="1">
          <mxGeometry width="50" height="50" relative="1" as="geometry">
            <mxPoint x="365.41999999999996" y="220" as="sourcePoint" />
            <mxPoint x="469.9999999999999" y="337.3499999999999" as="targetPoint" />
            <Array as="points">
              <mxPoint x="440" y="260" />
            </Array>
          </mxGeometry>
        </mxCell>
        <mxCell id="8Ak1ZYgC2NYPiWGYwasn-27" value="" style="rounded=1;whiteSpace=wrap;html=1;" parent="WIyWlLk6GJQsqaUBKTNV-1" vertex="1">
          <mxGeometry x="90" y="340" width="210" height="90" as="geometry" />
        </mxCell>
        <mxCell id="8Ak1ZYgC2NYPiWGYwasn-26" value="router for scraping API pray_times" style="rounded=0;whiteSpace=wrap;html=1;" parent="WIyWlLk6GJQsqaUBKTNV-1" vertex="1">
          <mxGeometry x="137.5" y="375" width="120" height="30" as="geometry" />
        </mxCell>
        <mxCell id="8Ak1ZYgC2NYPiWGYwasn-28" value="pray.py || pray_app" style="rounded=0;whiteSpace=wrap;html=1;" parent="WIyWlLk6GJQsqaUBKTNV-1" vertex="1">
          <mxGeometry x="140" y="340" width="115" height="20" as="geometry" />
        </mxCell>
        <mxCell id="8Ak1ZYgC2NYPiWGYwasn-21" value="FastAPI" style="rounded=0;whiteSpace=wrap;html=1;" parent="WIyWlLk6GJQsqaUBKTNV-1" vertex="1">
          <mxGeometry x="300" y="280" width="120" height="30" as="geometry" />
        </mxCell>
        <mxCell id="8Ak1ZYgC2NYPiWGYwasn-29" value="" style="rounded=1;whiteSpace=wrap;html=1;" parent="WIyWlLk6GJQsqaUBKTNV-1" vertex="1">
          <mxGeometry x="330" y="370" width="230" height="202.5" as="geometry" />
        </mxCell>
        <mxCell id="8Ak1ZYgC2NYPiWGYwasn-30" value="todo.py || todo_app" style="rounded=0;whiteSpace=wrap;html=1;" parent="WIyWlLk6GJQsqaUBKTNV-1" vertex="1">
          <mxGeometry x="385" y="380" width="120" height="30" as="geometry" />
        </mxCell>
        <mxCell id="8Ak1ZYgC2NYPiWGYwasn-40" value="" style="edgeStyle=orthogonalEdgeStyle;rounded=0;orthogonalLoop=1;jettySize=auto;html=1;" parent="WIyWlLk6GJQsqaUBKTNV-1" source="8Ak1ZYgC2NYPiWGYwasn-31" target="8Ak1ZYgC2NYPiWGYwasn-32" edge="1">
          <mxGeometry relative="1" as="geometry" />
        </mxCell>
        <mxCell id="8Ak1ZYgC2NYPiWGYwasn-31" value="Base CRUD methods" style="rounded=0;whiteSpace=wrap;html=1;" parent="WIyWlLk6GJQsqaUBKTNV-1" vertex="1">
          <mxGeometry x="385" y="420" width="120" height="40" as="geometry" />
        </mxCell>
        <mxCell id="8Ak1ZYgC2NYPiWGYwasn-32" value="when creating todo with time: if time is done: notificate the frontend&lt;div&gt;with WS&lt;/div&gt;" style="rounded=0;whiteSpace=wrap;html=1;" parent="WIyWlLk6GJQsqaUBKTNV-1" vertex="1">
          <mxGeometry x="389" y="470" width="112" height="80" as="geometry" />
        </mxCell>
        <mxCell id="8Ak1ZYgC2NYPiWGYwasn-33" value="" style="endArrow=classic;html=1;rounded=0;exitX=1;exitY=0.5;exitDx=0;exitDy=0;" parent="WIyWlLk6GJQsqaUBKTNV-1" source="8Ak1ZYgC2NYPiWGYwasn-32" target="8Ak1ZYgC2NYPiWGYwasn-11" edge="1">
          <mxGeometry width="50" height="50" relative="1" as="geometry">
            <mxPoint x="400" y="440" as="sourcePoint" />
            <mxPoint x="450" y="390" as="targetPoint" />
            <Array as="points">
              <mxPoint x="820" y="510" />
              <mxPoint x="820" y="85" />
            </Array>
          </mxGeometry>
        </mxCell>
        <mxCell id="8Ak1ZYgC2NYPiWGYwasn-34" value="Frontend Vue3 SPA" style="rounded=0;whiteSpace=wrap;html=1;fillColor=#d5e8d4;strokeColor=#82b366;gradientColor=#97d077;" parent="WIyWlLk6GJQsqaUBKTNV-1" vertex="1">
          <mxGeometry x="1070" y="190" width="120" height="35" as="geometry" />
        </mxCell>
        <mxCell id="8Ak1ZYgC2NYPiWGYwasn-37" value="" style="rounded=1;whiteSpace=wrap;html=1;fillColor=#dae8fc;gradientColor=#7ea6e0;strokeColor=#6c8ebf;" parent="WIyWlLk6GJQsqaUBKTNV-1" vertex="1">
          <mxGeometry x="1035" y="240" width="190" height="180" as="geometry" />
        </mxCell>
        <mxCell id="8Ak1ZYgC2NYPiWGYwasn-35" value="home.vue" style="rounded=0;whiteSpace=wrap;html=1;fillColor=#e6d0de;gradientColor=#d5739d;strokeColor=#996185;" parent="WIyWlLk6GJQsqaUBKTNV-1" vertex="1">
          <mxGeometry x="1070" y="280" width="120" height="40" as="geometry" />
        </mxCell>
        <mxCell id="8Ak1ZYgC2NYPiWGYwasn-36" value="todo.vue" style="rounded=0;whiteSpace=wrap;html=1;fillColor=#f8cecc;gradientColor=#ea6b66;strokeColor=#b85450;" parent="WIyWlLk6GJQsqaUBKTNV-1" vertex="1">
          <mxGeometry x="1070" y="330" width="120" height="60" as="geometry" />
        </mxCell>
        <mxCell id="8Ak1ZYgC2NYPiWGYwasn-39" value="App.vue" style="text;html=1;align=center;verticalAlign=middle;whiteSpace=wrap;rounded=0;" parent="WIyWlLk6GJQsqaUBKTNV-1" vertex="1">
          <mxGeometry x="1100" y="250" width="60" height="30" as="geometry" />
        </mxCell>
      </root>
    </mxGraphModel>
  </diagram>
</mxfile>
